<svg xmlns="http://www.w3.org/2000/svg" width="240" height="240" viewBox="0 0 240 240" fill="none">
  <defs><clipPath id="fc"><rect x="28" y="28" width="170" height="140" rx="26"></rect></clipPath></defs>
  <rect x="28" y="40" width="184" height="176" rx="26" fill="#6E5D10"></rect>
  <rect x="28" y="28" width="170" height="140" rx="26" fill="#C7A634"></rect>
  <g clip-path="url(#fc)">
    <polygon points="28,28 122,28 28,122" fill="#D8C156"></polygon>
    <line x1="122" y1="28" x2="28" y2="122" stroke="#B89426" stroke-width="2"></line>
  </g>
  <g fill="#FFFFFF">
    <rect x="85" y="64" width="56" height="15" rx="2"></rect>
    <rect x="104" y="64" width="18" height="68"></rect>
    <rect x="85" y="117" width="56" height="15" rx="2"></rect>
  </g>
  <g transform="translate(188,56) scale(1.05)">
    <path d="M-22,-26 a6 6 0 0 1 6,-6 L16,-32 a6 6 0 0 1 6,6 L22,30 L0,14 L-22,30 Z" fill="#0696D7" stroke="#045E87" stroke-width="4" stroke-linejoin="round"></path>
    <text x="0" y="-8" text-anchor="middle" dominant-baseline="middle" font-family="Tahoma, &#39;Segoe UI&#39;, Arial, sans-serif" font-size="28" font-weight="700" fill="#FFFFFF">M</text>
  </g>
</svg>